<svg width="40" height="40" viewBox="0 0 40 40" fill="none" xmlns="http://www.w3.org/2000/svg">
<path d="M25.4591 14.5967C25.3336 14.9016 25.4831 15.2487 25.7881 15.3742C25.8599 15.4041 25.9376 15.4161 26.0153 15.4161C26.2487 15.4161 26.4759 15.2725 26.5715 15.0453C27.0977 13.7474 26.8347 12.4494 26.5955 11.3013C26.3862 10.2725 26.2009 9.38736 26.5536 8.65173C26.6972 8.35268 26.5715 7.99382 26.2724 7.85629C25.9734 7.71263 25.6204 7.8384 25.477 8.13745C24.9507 9.23809 25.1958 10.4102 25.423 11.5408C25.6444 12.6173 25.8537 13.6341 25.4588 14.597L25.4591 14.5967Z" fill="#967E76"/>
<path d="M20.0581 14.6443C19.9563 14.9612 20.1299 15.2963 20.4468 15.3977C20.5066 15.4156 20.5665 15.4276 20.6263 15.4276C20.8775 15.4276 21.1168 15.2661 21.1945 15.009C21.697 13.4298 21.4516 11.8809 21.2124 10.3795C21.003 9.06958 20.8057 7.83756 21.1883 6.80882C21.3021 6.49776 21.1464 6.15678 20.8353 6.03717C20.5243 5.92342 20.1833 6.07909 20.0637 6.39016C19.5732 7.71186 19.8065 9.16549 20.0279 10.5648C20.2431 11.9226 20.4706 13.3281 20.0519 14.6378L20.0581 14.6443Z" fill="#967E76"/>
<path d="M14.6935 14.5967C14.568 14.9016 14.7175 15.2487 15.0224 15.3742C15.0943 15.4041 15.172 15.4161 15.2497 15.4161C15.483 15.4161 15.7103 15.2725 15.8058 15.0453C16.3321 13.7474 16.0691 12.4494 15.8299 11.3013C15.6205 10.2725 15.4352 9.38736 15.788 8.65173C15.9316 8.35268 15.8058 7.99382 15.5068 7.85629C15.2077 7.71263 14.8489 7.8384 14.7114 8.13745C14.1851 9.23809 14.4302 10.4102 14.6574 11.5408C14.8788 12.6173 15.0881 13.6341 14.6932 14.597L14.6935 14.5967Z" fill="#967E76"/>
<path d="M25.1239 17.9639H15.5543C14.5017 17.9639 13.485 18.1076 12.5039 18.3527H12.4262C12.3963 18.3586 12.3723 18.3826 12.3424 18.3946C11.1462 18.7115 10.0218 19.202 8.99302 19.8359C8.93909 19.86 8.89129 19.8837 8.84937 19.9256C5.33848 22.1565 3 26.0682 3 30.524C3 32.1746 4.33989 33.5145 5.99051 33.5145H34.6932C36.3439 33.5145 37.6838 32.1746 37.6838 30.524C37.6838 23.5983 32.0496 17.9639 25.1236 17.9639L25.1239 17.9639ZM27.9889 19.543C28.7664 19.7465 29.5082 20.0274 30.2139 20.3804C29.281 23.5383 28.1624 24.9201 27.8754 24.9737C27.5286 24.7286 27.3014 22.671 27.9892 19.543H27.9889ZM21.5235 19.1601C21.4397 22.4198 20.7161 24.3935 20.3573 24.5489C19.9565 24.3935 19.2267 22.4257 19.1431 19.1601H21.5235ZM12.2471 24.9617C11.8883 24.9139 10.8357 23.562 9.9444 20.6554C10.6263 20.2666 11.3558 19.9377 12.1155 19.6984C12.8153 22.976 12.4802 24.7703 12.2471 24.9617H12.2471ZM34.6879 32.318H5.98449C4.99759 32.318 4.19018 31.5106 4.19018 30.5237C4.19018 26.7378 6.05633 23.3944 8.90931 21.3253C9.4476 22.9759 10.6916 26.1579 12.2408 26.1579C12.3305 26.1579 12.4261 26.1459 12.5158 26.1221C14.1605 25.7154 13.8196 21.9413 13.2754 19.3876C14.011 19.2381 14.7707 19.1604 15.5541 19.1604H17.9524C18.0242 21.8518 18.5804 25.7395 20.3389 25.7395C22.0974 25.7395 22.6536 21.8518 22.7254 19.1604H25.1237C25.7039 19.1604 26.266 19.2202 26.8225 19.304C26.2601 21.8938 25.8954 25.7037 27.5642 26.1283C27.654 26.1523 27.7378 26.1582 27.8275 26.1582C29.2031 26.1582 30.4832 23.5684 31.2786 20.9904C34.4066 23.0181 36.488 26.5287 36.488 30.53C36.488 31.5169 35.6806 32.3243 34.6937 32.3243L34.6879 32.318Z" fill="#967E76"/>
</svg>
