<svg id="icon" width="40" height="40" viewBox="0 0 40 40" fill="none" xmlns="http://www.w3.org/2000/svg">
<path d="M29.4858 6.51416C29.2108 6.51416 28.9858 6.73916 28.9858 7.01416V14.1142C28.9858 14.8843 28.356 15.5142 27.5858 15.5142H27.4858C27.2108 15.5142 26.9858 15.7392 26.9858 16.0142V31.5142C26.9858 32.0642 26.5358 32.5142 25.9858 32.5142C25.4358 32.5142 24.9858 32.0642 24.9858 31.5142V16.0142C24.9858 15.7392 24.7608 15.5142 24.4858 15.5142H24.3858C23.6157 15.5142 22.9858 14.8843 22.9858 14.1142V7.01416C22.9858 6.73916 22.7608 6.51416 22.4858 6.51416C22.2108 6.51416 21.9858 6.73916 21.9858 7.01416V14.1142C21.9858 15.2992 22.8508 16.2891 23.9858 16.4791V31.514C23.9858 32.6189 24.8809 33.514 25.9858 33.514C27.0908 33.514 27.9858 32.6189 27.9858 31.514V16.4791C29.1209 16.2892 29.9858 15.2992 29.9858 14.1142V7.01416C29.9858 6.73916 29.7608 6.51416 29.4858 6.51416Z" fill="#967E76"/>
<path d="M24.9858 14.5142C25.2608 14.5142 25.4858 14.2892 25.4858 14.0142V7.01416C25.4858 6.73916 25.2608 6.51416 24.9858 6.51416C24.7108 6.51416 24.4858 6.73916 24.4858 7.01416V14.0142C24.4858 14.2892 24.7108 14.5142 24.9858 14.5142Z" fill="#967E76"/>
<path d="M26.9858 14.5142C27.2608 14.5142 27.4858 14.2892 27.4858 14.0142V7.01416C27.4858 6.73916 27.2608 6.51416 26.9858 6.51416C26.7108 6.51416 26.4858 6.73916 26.4858 7.01416V14.0142C26.4858 14.2892 26.7108 14.5142 26.9858 14.5142Z" fill="#967E76"/>
<path d="M14.4858 6.51416C11.8358 6.51416 9.98584 9.41416 9.98584 12.0142C9.98584 13.9742 11.006 15.9191 12.4858 16.8791V31.3391C12.4858 32.5391 13.3809 33.5141 14.4858 33.5141C15.5908 33.5141 16.4858 32.5391 16.4858 31.3391V16.8791C17.9657 15.9142 18.9858 13.9691 18.9858 12.0142C18.9858 9.41416 17.1358 6.51416 14.4858 6.51416ZM15.4858 31.3393C15.4858 31.9893 15.0358 32.5143 14.4858 32.5143C13.9358 32.5143 13.4858 31.9893 13.4858 31.3393V17.3644C13.5059 17.3694 13.5209 17.3694 13.5408 17.3745C13.6508 17.4044 13.7557 17.4294 13.8658 17.4495C13.9158 17.4595 13.9608 17.4696 14.0108 17.4794C14.1658 17.4995 14.3258 17.5144 14.4858 17.5144C14.6459 17.5144 14.8059 17.4995 14.9658 17.4794C15.0158 17.4745 15.0608 17.4593 15.1108 17.4495C15.2209 17.4294 15.3258 17.4095 15.4358 17.3745C15.4559 17.3696 15.4709 17.3696 15.4908 17.3644V31.3393H15.4858ZM15.7459 16.1742C15.6459 16.2291 15.541 16.2791 15.4358 16.3193C14.9157 16.5293 14.3758 16.5643 13.8508 16.4242C13.6408 16.3693 13.4307 16.2842 13.2258 16.1742C11.9258 15.4641 10.9858 13.7141 10.9858 12.0141C10.9858 9.65919 12.656 7.5141 14.4858 7.5141C16.3157 7.5141 17.9858 9.65919 17.9858 12.0141C17.9858 13.7141 17.0459 15.4641 15.7459 16.1742H15.7459Z" fill="#967E76"/>
</svg>
