<svg width="40" height="40" viewBox="0 0 40 40" fill="none" xmlns="http://www.w3.org/2000/svg">
<path d="M35.9284 21.7169C35.9219 21.3073 35.7875 20.8912 35.5315 20.4945L35.5188 20.4754C34.3411 18.9394 32.69 17.9667 30.2389 17.4803C30.5717 16.8274 30.559 16.1171 30.4822 15.3298C30.4757 14.9202 30.3413 14.5042 30.0853 14.1075L30.0726 14.0883C27.8518 11.1827 23.9286 10.2867 16.0754 10.8947C14.629 10.9074 13.3426 12.2195 12.5937 14.4275L7.87698 15.4384C5.84172 15.8737 4.42098 16.8016 4.06892 17.9217C3.99214 18.1713 3.94727 18.4913 4.03053 18.8496C4.13923 19.9824 4.38254 21.2239 5.36802 21.8511C6.43676 22.5359 7.97293 22.8815 9.78407 22.8815C10.0912 22.8815 10.4048 22.8687 10.7312 22.8496C10.1104 23.2656 9.68785 23.7648 9.52156 24.3087C9.44477 24.5582 9.39991 24.8783 9.48317 25.2366C9.59187 26.3694 9.83518 27.6109 10.8207 28.2381C11.8894 28.9229 13.4256 29.2685 15.2367 29.2685C16.2479 29.2685 17.3423 29.1598 18.4943 28.9421L32.2412 25.9917L32.2668 25.9852C35.947 24.9104 36.107 23.4767 35.9278 21.7167L35.9284 21.7169ZM29.5221 14.4786C29.823 14.9458 29.8806 15.413 29.7013 15.8609C29.5029 16.3601 29.01 16.8272 28.3254 17.2049C26.4629 17.0387 24.223 17.0641 21.5157 17.2753C21.055 17.2817 20.607 17.4161 20.1909 17.6721C20.0373 14.8241 19.0581 12.4882 17.6822 11.4579C24.2228 11.0998 27.6085 11.9893 29.5222 14.4788L29.5221 14.4786ZM23.7426 19.586L18.8082 20.6485C19.4674 18.9717 20.4785 17.9541 21.541 17.9541C22.3665 17.9476 23.141 18.5684 23.7426 19.586L23.7426 19.586ZM16.0815 11.5603C16.9134 11.5603 17.688 12.181 18.2896 13.1922L13.3552 14.2547C14.0081 12.5779 15.0257 11.5603 16.0815 11.5603V11.5603ZM4.69579 18.1203C4.96454 17.25 6.23173 16.4754 8.00447 16.0915L18.6159 13.8131C19.1599 14.9843 19.5054 16.5267 19.5438 18.1908C19.1791 18.5555 18.8462 19.0164 18.5583 19.5731L12.8942 20.7892C9.95676 21.4164 6.38567 20.7892 5.09253 19.4133C4.68941 18.9905 4.5615 18.5552 4.69588 18.1202L4.69579 18.1203ZM5.71345 21.2819C5.33577 21.0386 5.09893 20.6481 4.94539 20.1939C6.13579 21.1475 8.26705 21.7107 10.4813 21.7107C11.3389 21.7107 12.203 21.6274 13.0349 21.4482L18.2126 20.3346C18.155 20.4817 18.0974 20.629 18.0463 20.789L12.907 21.8899C9.85429 22.4723 7.23669 22.2482 5.71326 21.2819L5.71345 21.2819ZM10.1485 24.5073C10.4172 23.637 11.6844 22.8624 13.4572 22.4785L24.0686 20.2001C24.6445 21.4354 24.9965 23.0738 24.9965 24.8465C24.9965 25.1474 24.9838 25.4546 24.9646 25.7552L18.3406 27.176C15.4031 27.8032 11.832 27.176 10.5388 25.8001C10.1422 25.3778 10.0078 24.9425 10.1484 24.5072L10.1485 24.5073ZM32.081 25.3329L18.353 28.2769C15.3131 28.8593 12.6954 28.6354 11.1725 27.6624C10.7948 27.4191 10.558 27.0287 10.4044 26.5745C11.5948 27.5281 13.7261 28.0912 15.9404 28.0912C16.798 28.0912 17.662 28.008 18.494 27.8287L32.2477 24.8783C33.4829 24.5839 34.5006 24.0718 35.1468 23.4254C34.8334 24.1682 34.0142 24.7698 32.0813 25.333L32.081 25.3329ZM35.1532 22.2546C34.8139 23.1057 33.6364 23.8611 32.0876 24.2258L25.6424 25.6081C25.6551 25.3521 25.6616 25.1026 25.6616 24.8465C25.6616 21.6465 24.6313 18.9648 23.1272 17.8448C29.6678 17.4928 33.0535 18.3761 34.9672 20.8721C35.2746 21.3393 35.3322 21.8065 35.1529 22.2544L35.1532 22.2546Z" fill="#967E76"/>
</svg>
