<svg width="40" height="40" viewBox="0 0 40 40" fill="none" xmlns="http://www.w3.org/2000/svg">
<path d="M10.8401 10C10.5729 10 10.3574 10.2153 10.3574 10.4827C10.3574 10.7499 10.5727 10.9654 10.8401 10.9654C20.7618 10.9654 28.8326 19.0362 28.8326 28.9579C28.8326 29.2251 29.0479 29.4406 29.3153 29.4406C29.5826 29.4406 29.798 29.2253 29.798 28.9579C29.8003 18.5063 21.2941 10.0002 10.8403 10.0002L10.8401 10Z" fill="#967E76"/>
<path d="M10.8401 15.499C10.5729 15.499 10.3574 15.7143 10.3574 15.9817C10.3574 16.249 10.5727 16.4644 10.8401 16.4644C17.7278 16.4644 23.3335 22.0701 23.3335 28.9578C23.3335 29.225 23.5488 29.4405 23.8162 29.4405C24.0834 29.4405 24.2989 29.2252 24.2989 28.9578C24.3011 21.538 18.2623 15.4992 10.8403 15.4992L10.8401 15.499Z" fill="#967E76"/>
<path d="M10.8401 21.001C10.5729 21.001 10.3574 21.2163 10.3574 21.4837C10.3574 21.7509 10.5727 21.9664 10.8401 21.9664C14.6959 21.9664 17.8344 25.1045 17.8344 28.9606C17.8344 29.2278 18.0496 29.4433 18.317 29.4433C18.5843 29.4433 18.7997 29.228 18.7997 28.9606C18.7994 24.5698 15.2307 21.0012 10.8403 21.0012L10.8401 21.001Z" fill="#967E76"/>
<path d="M12.7349 25.9948C13.7439 26.4128 14.223 27.5694 13.805 28.5785C13.3871 29.5875 12.2303 30.0666 11.2214 29.6486C10.2123 29.2307 9.73308 28.0739 10.151 27.065C10.569 26.0559 11.7258 25.5769 12.7349 25.9948Z" fill="#967E76"/>
</svg>
