<svg id="logo" viewBox="0 0 91 40" fill="none" xmlns="http://www.w3.org/2000/svg">
<path fill-rule="evenodd" clip-rule="evenodd" d="M13.084 23.5V20.4414H10.062V18.3469H6.16797V20.4414H3.89404V2.88281H0V23.5H2.71875H3.89404H6.16797V38.9641H10.062V29.9157H18.8413V38.9641H22.7354V18.3469H18.8413V26.8571H10.062V23.5H13.084Z" fill="currentColor"/>
<path d="M34.1197 19V2.8H35.6397V17.86H40.2397V19H34.1197ZM42.8764 19L46.2964 2.8H47.8964L51.3364 19H49.8364L49.0364 14.66H45.1764L44.3564 19H42.8764ZM45.3964 13.56H48.8364L47.1164 4.82L45.3964 13.56ZM55.2677 19V2.8H56.8077V11.36L61.1277 2.8H62.5877L59.2677 9.76L63.3077 19H61.8077L58.2477 10.9L56.8077 13.54V19H55.2677ZM66.7208 19V2.8H72.5808V3.98H68.2608V10.06H71.7808V11.18H68.2608V17.86H72.6208V19H66.7208Z" fill="currentColor"/>
<path d="M34.0997 39V22.8H35.6397V29.98H40.7397V22.8H42.2597V39H40.7397V31.12H35.6397V39H34.0997ZM50.9363 39.2C49.8563 39.2 49.0096 38.9933 48.3963 38.58C47.7963 38.1533 47.3696 37.5667 47.1163 36.82C46.8763 36.06 46.7563 35.1933 46.7563 34.22V27.5C46.7563 26.5133 46.8829 25.66 47.1363 24.94C47.4029 24.2067 47.8363 23.64 48.4363 23.24C49.0496 22.84 49.8829 22.64 50.9363 22.64C51.9763 22.64 52.7963 22.84 53.3963 23.24C54.0096 23.64 54.4429 24.2067 54.6963 24.94C54.9496 25.66 55.0763 26.5133 55.0763 27.5V34.24C55.0763 35.2133 54.9496 36.0733 54.6963 36.82C54.4563 37.5533 54.0363 38.1333 53.4363 38.56C52.8363 38.9867 52.0029 39.2 50.9363 39.2ZM50.9363 37.98C51.6429 37.98 52.1829 37.84 52.5563 37.56C52.9296 37.2667 53.1829 36.8667 53.3163 36.36C53.4629 35.84 53.5363 35.24 53.5363 34.56V27.22C53.5363 26.54 53.4629 25.9467 53.3163 25.44C53.1829 24.9333 52.9296 24.5467 52.5563 24.28C52.1829 24 51.6429 23.86 50.9363 23.86C50.2163 23.86 49.6629 24 49.2763 24.28C48.9029 24.5467 48.6429 24.9333 48.4963 25.44C48.3629 25.9467 48.2963 26.54 48.2963 27.22V34.56C48.2963 35.24 48.3629 35.84 48.4963 36.36C48.6429 36.8667 48.9029 37.2667 49.2763 37.56C49.6629 37.84 50.2163 37.98 50.9363 37.98ZM63.5641 39.2C62.4707 39.2 61.6174 39.0067 61.0041 38.62C60.4041 38.22 59.9907 37.6733 59.7641 36.98C59.5374 36.2733 59.4241 35.4733 59.4241 34.58V22.8H60.9041V34.62C60.9041 35.2467 60.9707 35.82 61.1041 36.34C61.2507 36.8467 61.5174 37.2467 61.9041 37.54C62.2907 37.8333 62.8441 37.98 63.5641 37.98C64.2574 37.98 64.7974 37.8333 65.1841 37.54C65.5707 37.2333 65.8374 36.8267 65.9841 36.32C66.1441 35.8133 66.2241 35.2467 66.2241 34.62V22.8H67.6841V34.58C67.6841 35.4733 67.5641 36.2733 67.3241 36.98C67.0841 37.6733 66.6641 38.22 66.0641 38.62C65.4641 39.0067 64.6307 39.2 63.5641 39.2ZM75.7863 39.2C74.9063 39.2 74.1729 39.02 73.5863 38.66C73.0129 38.2867 72.5796 37.7733 72.2863 37.12C71.9929 36.4533 71.8129 35.68 71.7463 34.8L73.0863 34.4C73.1529 35.0667 73.2729 35.6733 73.4463 36.22C73.6196 36.7533 73.8929 37.18 74.2663 37.5C74.6396 37.8067 75.1529 37.96 75.8063 37.96C76.5263 37.96 77.0863 37.7733 77.4863 37.4C77.8863 37.0267 78.0863 36.4333 78.0863 35.62C78.0863 34.9 77.9063 34.28 77.5463 33.76C77.1996 33.24 76.7196 32.6933 76.1063 32.12L73.2463 29.38C72.7396 28.8867 72.3663 28.38 72.1263 27.86C71.8863 27.3267 71.7663 26.7467 71.7663 26.12C71.7663 25 72.0996 24.14 72.7663 23.54C73.4329 22.94 74.3196 22.64 75.4263 22.64C75.9996 22.64 76.5129 22.7133 76.9663 22.86C77.4329 23.0067 77.8263 23.2467 78.1463 23.58C78.4796 23.9 78.7396 24.32 78.9263 24.84C79.1129 25.36 79.2396 25.9933 79.3063 26.74L78.0063 27.08C77.9529 26.4 77.8396 25.82 77.6663 25.34C77.5063 24.8467 77.2463 24.4733 76.8863 24.22C76.5396 23.9667 76.0529 23.84 75.4263 23.84C74.7596 23.84 74.2129 24.0133 73.7863 24.36C73.3596 24.7067 73.1463 25.2467 73.1463 25.98C73.1463 26.42 73.2263 26.82 73.3863 27.18C73.5596 27.54 73.8596 27.9267 74.2863 28.34L77.1463 31.04C77.7863 31.64 78.3396 32.3067 78.8063 33.04C79.2729 33.7733 79.5063 34.6 79.5063 35.52C79.5063 36.3333 79.3463 37.0133 79.0263 37.56C78.7196 38.1067 78.2863 38.52 77.7263 38.8C77.1663 39.0667 76.5196 39.2 75.7863 39.2ZM83.5255 39V22.8H89.3855V23.98H85.0655V30.06H88.5855V31.18H85.0655V37.86H89.4255V39H83.5255Z" fill="currentColor"/>
</svg>
