<svg id="icon" width="40" height="40" viewBox="0 0 40 40" fill="none" xmlns="http://www.w3.org/2000/svg">
<path d="M33.5771 27.8231H25.1457C26.2407 27.2173 27.1534 26.3295 27.7893 25.252C28.4252 24.1743 28.7609 22.9461 28.7619 21.6949H29.6373C30.5757 21.6949 31.4428 21.1942 31.9118 20.3817C32.381 19.5692 32.381 18.5678 31.9118 17.7553C31.4428 16.9428 30.5757 16.4421 29.6373 16.4421H14.3168C14.0751 16.4421 13.8791 16.6381 13.8791 16.8799V21.6949C13.8793 22.1496 13.9235 22.6033 14.011 23.0497C13.5754 23.4387 13.2466 24.0373 13.0957 24.7498C12.5857 24.4793 11.9498 24.3212 11.2527 24.3212C9.53464 24.3212 8.18864 25.2827 8.18864 26.5099C8.18864 27.0066 8.40907 27.4598 8.78565 27.823H6.43773C6.196 27.823 6 28.0191 6 28.2608V28.9174C6.00039 29.3236 6.162 29.7129 6.44926 30.0002C6.73652 30.2874 7.12576 30.4491 7.53207 30.4494H32.4826C32.8888 30.449 33.2781 30.2874 33.5654 30.0002C33.8526 29.7129 34.0143 29.3237 34.0146 28.9174V28.2608C34.0146 28.1447 33.9685 28.0333 33.8865 27.9512C33.8044 27.8692 33.693 27.823 33.5769 27.823L33.5771 27.8231ZM28.7621 17.3176H29.6376C30.2631 17.3176 30.8412 17.6514 31.154 18.1931C31.4666 18.7347 31.4666 19.4023 31.154 19.944C30.8411 20.4856 30.2631 20.8194 29.6376 20.8194H28.7621V17.3176ZM14.7548 17.3176H27.8867V21.6949C27.8849 23.3196 27.2387 24.8774 26.0898 26.0262C24.941 27.1751 23.3832 27.8213 21.7585 27.8231H20.883C19.581 27.8274 18.3121 27.4123 17.2641 26.6397C17.3425 26.3104 17.382 25.9729 17.3812 25.6344C17.3812 23.9163 16.4197 22.5703 15.1925 22.5703C15.0681 22.5705 14.9442 22.5852 14.8232 22.6141C14.7777 22.3098 14.7548 22.0026 14.7548 21.6949L14.7548 17.3176ZM17.4895 27.8231H16.7377C16.8149 27.7158 16.8851 27.6036 16.9474 27.4872C17.124 27.6081 17.3048 27.7201 17.4895 27.8231H17.4895ZM15.5021 25.3247C15.0436 24.8663 15.2914 23.9611 15.4638 23.4951C16.0504 23.71 16.5057 24.6025 16.5057 25.6345C16.5057 26.3661 16.2771 27.0276 15.9345 27.427C16.0774 26.7622 16.0914 25.9147 15.5023 25.3248L15.5021 25.3247ZM14.4484 23.8519C14.3077 24.5155 14.2964 25.3578 14.8828 25.9442C15.3413 26.4022 15.0941 27.3066 14.9217 27.7723C14.6548 27.6732 14.4062 27.4309 14.2164 27.078V27.0778C14.2829 26.8959 14.3171 26.7036 14.3171 26.5099C14.3128 26.094 14.1611 25.6935 13.8891 25.3788C13.9356 24.759 14.1496 24.2058 14.4484 23.8519L14.4484 23.8519ZM13.3924 26.7814C13.3809 26.8115 13.3678 26.8416 13.3529 26.8711C13.3469 26.882 13.3408 26.8935 13.3354 26.9055C13.0483 27.4307 12.2111 27.8231 11.253 27.8231C10.5214 27.8231 9.8605 27.5945 9.46049 27.2525C9.69889 27.3049 9.94199 27.3325 10.1861 27.3346C10.673 27.3346 11.1737 27.2082 11.5628 26.8197C12.0212 26.3611 12.9262 26.609 13.3924 26.7814L13.3924 26.7814ZM11.253 25.1967C11.9846 25.1967 12.6461 25.4254 13.0455 25.7679C12.3807 25.6251 11.5332 25.6108 10.9433 26.2002C10.4848 26.6586 9.57928 26.4109 9.11364 26.2385C9.32859 25.652 10.2211 25.1968 11.2531 25.1968L11.253 25.1967ZM33.1394 28.9174C33.139 29.2799 32.8453 29.5736 32.4828 29.574H7.53231C7.16982 29.5736 6.87612 29.2799 6.87572 28.9174V28.6986H33.1394V28.9174Z" fill="#967E76"/>
<path d="M20.4133 14.009C20.5392 14.3787 20.7432 14.717 21.0115 15.0009C21.1817 15.1709 21.4574 15.1713 21.628 15.0017C21.799 14.8317 21.801 14.5556 21.6321 14.3834C21.5303 14.2795 20.6654 13.3395 21.6306 12.3746C22.467 11.538 22.4175 10.6874 22.2287 10.1211V10.1209C22.1029 9.75114 21.8989 9.4129 21.6306 9.12895C21.46 8.95757 21.1829 8.95699 21.0115 9.12739C20.8401 9.29799 20.8393 9.57508 21.0099 9.74646C21.1117 9.85042 21.9766 10.7904 21.0115 11.7553C20.1751 12.5921 20.2246 13.4427 20.4133 14.009L20.4133 14.009Z" fill="#967E76"/>
<path d="M17.2029 14.0091C17.3289 14.3788 17.533 14.7171 17.8011 15.001C17.9713 15.1711 18.247 15.1714 18.4176 15.0018C18.5888 14.8318 18.5905 14.5557 18.4219 14.3836C18.3201 14.2796 17.4552 13.3397 18.4203 12.3747C19.2567 11.5381 19.2072 10.6875 19.0185 10.1212L19.0183 10.121C18.8924 9.75126 18.6884 9.41322 18.4201 9.12927C18.2497 8.95789 17.9724 8.95711 17.801 9.1277C17.6297 9.2981 17.6289 9.5752 17.7995 9.74678C17.9013 9.85074 18.7662 10.7907 17.801 11.7556C16.9647 12.5922 17.0141 13.4429 17.2029 14.0091L17.2029 14.0091Z" fill="#967E76"/>
<path d="M23.6229 14.009C23.7487 14.3787 23.9528 14.717 24.2211 15.0009C24.3913 15.1709 24.667 15.1713 24.8376 15.0017C25.0086 14.8317 25.0105 14.5556 24.8417 14.3834C24.7399 14.2795 23.875 13.3395 24.8401 12.3746C25.6765 11.538 25.627 10.6874 25.4383 10.1211V10.1209C25.3122 9.75114 25.1082 9.4129 24.8401 9.12895C24.6695 8.95757 24.3924 8.95699 24.221 9.12739C24.0495 9.29799 24.0489 9.57508 24.2193 9.74666C24.3211 9.85062 25.186 10.7906 24.2208 11.7555C23.3845 12.5921 23.4341 13.4427 23.6229 14.009L23.6229 14.009Z" fill="#967E76"/>
</svg>
