<svg id="icon" width="40" height="40" viewBox="0 0 40 40" fill="none" xmlns="http://www.w3.org/2000/svg">
<path d="M11.2729 26.5443C10.9701 26.433 10.6359 26.5924 10.5263 26.9006L9.73311 29.133C9.67531 29.2823 9.67941 29.4489 9.74424 29.595C9.80908 29.7414 9.92918 29.8545 10.0774 29.9091C10.2254 29.9636 10.3891 29.9549 10.5307 29.8847C10.6724 29.8145 10.7802 29.6891 10.8296 29.5368L11.6229 27.3043C11.7322 26.9962 11.5756 26.6561 11.2729 26.5443L11.2729 26.5443ZM24.3726 26.4376C24.2191 26.4636 24.0824 26.5511 23.9925 26.6803C23.9027 26.8097 23.8674 26.9703 23.8943 27.1262L24.3027 29.5012C24.3532 29.7823 24.5934 29.9871 24.8743 29.9881H24.9793H24.9791C25.1326 29.962 25.2695 29.8746 25.3594 29.7451C25.4492 29.6157 25.4845 29.4553 25.4574 29.2992L25.0491 26.9242L25.0492 26.9244C25.0235 26.7682 24.9377 26.6288 24.8106 26.5374C24.6835 26.4459 24.5259 26.4099 24.3726 26.4376H24.3726ZM15.6473 26.4376C15.494 26.4099 15.3364 26.4459 15.2093 26.5374C15.0822 26.6288 14.9964 26.7682 14.9707 26.9244L14.5623 29.2994L14.5625 29.2992C14.5354 29.4553 14.5707 29.6157 14.6605 29.7451C14.7504 29.8746 14.8873 29.962 15.0408 29.9881H15.1458H15.1456C15.4265 29.9871 15.6667 29.7823 15.7172 29.5012L16.1256 27.1262C16.1525 26.9703 16.1172 26.8097 16.0274 26.6803C15.9375 26.5511 15.8008 26.4636 15.6473 26.4376H15.6473ZM20.01 26.4376C19.688 26.4376 19.4267 26.7034 19.4267 27.0312V29.4062C19.4267 29.734 19.688 30 20.01 30C20.332 30 20.5933 29.734 20.5933 29.4062V27.0312C20.5933 26.8737 20.5318 26.7228 20.4224 26.6113C20.3131 26.5 20.1647 26.4376 20.01 26.4376V26.4376ZM29.4936 26.9008V26.9006C29.4442 26.7483 29.3364 26.6229 29.1948 26.5527C29.0531 26.4825 28.8896 26.4738 28.7414 26.5284C28.5932 26.5829 28.4731 26.6962 28.4082 26.8423C28.3434 26.9884 28.3395 27.1552 28.3971 27.3043L29.1903 29.5368C29.3061 29.8358 29.6346 29.9869 29.9314 29.8775C30.2283 29.7682 30.3859 29.4382 30.2869 29.133L29.4936 26.9008ZM33.2614 11.9976C32.6953 11.3599 31.8896 10.9973 31.0452 11H8.97482C8.13449 11.0006 7.33366 11.363 6.77024 11.9976C6.21307 12.6101 5.93756 13.4345 6.01194 14.2656L6.72354 21.3905C6.80185 22.1314 7.14907 22.8161 7.69705 23.3101C8.24503 23.8043 8.95447 24.0725 9.68642 24.0623H30.3335C31.0615 24.0665 31.7651 23.7957 32.3082 23.3021C32.8512 22.8085 33.195 22.1274 33.2731 21.3905L33.9847 14.2656C34.0685 13.4397 33.8058 12.616 33.2613 11.9976H33.2614ZM11.1331 22.8747C11.1759 22.5441 11.3358 22.241 11.5829 22.0223C11.8299 21.8034 12.1472 21.6843 12.4745 21.6871H27.5459C27.872 21.6847 28.1876 21.8042 28.4328 22.0233C28.6779 22.2421 28.8355 22.5451 28.8755 22.8747L11.1331 22.8747ZM32.1301 21.2716C32.0807 21.7185 31.8692 22.1308 31.5368 22.4272C31.2047 22.7238 30.7754 22.8835 30.3337 22.8747H30.0654C30.0211 22.2288 29.7373 21.6243 29.2718 21.1834C28.8062 20.7424 28.1934 20.4981 27.5574 20.4997H12.4745C11.7158 20.4961 10.996 20.8406 10.5148 21.4378C10.1891 21.8466 9.99731 22.3491 9.96667 22.8747H9.68663C9.24685 22.8805 8.82055 22.7195 8.4907 22.4232C8.16085 22.127 7.95113 21.7165 7.90193 21.2716L7.70352 19.3123H32.3165L32.1301 21.2716ZM32.4334 18.1247H7.58694L7.1786 14.1468C7.1286 13.6516 7.29011 13.1585 7.62189 12.7929C7.96755 12.4041 8.45987 12.1838 8.975 12.1874H31.0453C31.5564 12.187 32.0438 12.4071 32.3867 12.7929C32.7228 13.1565 32.8886 13.6498 32.8418 14.1468L32.4334 18.1247ZM21.7599 15.7499H18.2604C17.9384 15.7499 17.6771 16.0156 17.6771 16.3435C17.6771 16.6715 17.9384 16.9373 18.2604 16.9373H21.7599C22.0819 16.9373 22.3432 16.6715 22.3432 16.3435C22.3432 16.0156 22.0819 15.7499 21.7599 15.7499Z" fill="#967E76"/>
</svg>
