<svg id="icon" width="40" height="40" viewBox="0 0 40 40" fill="none" xmlns="http://www.w3.org/2000/svg">
<path d="M27.0335 7.34381C26.9152 7.13161 26.6912 7 26.4482 7H13.8242C13.5812 7 13.3571 7.13192 13.2389 7.34381C11.6297 10.2418 9.80574 13.5265 10.0167 17.0765C10.0961 18.4038 10.4747 19.5137 11.1421 20.3758C11.9968 21.4807 13.4483 22.3242 15.3404 22.8161C15.5361 22.8669 15.7336 22.9138 15.9328 22.9574C17.0908 23.2104 18.2769 23.3501 19.4667 23.3896V30.9846L14.4493 30.9849C14.0799 30.9849 13.7803 31.2845 13.7803 31.6538C13.7803 32.0231 14.0799 32.3228 14.4493 32.3228H25.8236C26.1929 32.3228 26.4925 32.0231 26.4925 31.6538C26.4925 31.2845 26.1929 30.9849 25.8236 30.9849H20.8052V23.3899C21.9956 23.3498 23.1817 23.2101 24.34 22.9571C24.5382 22.9135 24.7358 22.8669 24.9318 22.8161C26.8236 22.3242 28.2751 21.4807 29.1297 20.3758C29.7971 19.5131 30.1761 18.4035 30.2551 17.0759C30.4667 13.5264 28.6428 10.2416 27.0336 7.34397L27.0335 7.34381ZM14.2175 8.33763H26.0546C27.1236 10.2667 28.245 12.3679 28.7098 14.535L11.5631 14.5353C12.028 12.3679 13.1493 10.2674 14.2181 8.33762L14.2175 8.33763ZM28.9196 16.9966C28.8562 18.0502 28.5712 18.912 28.0712 19.5573C27.2227 20.6541 25.7131 21.2309 24.596 21.5208C24.4159 21.5672 24.2348 21.6105 24.0531 21.6503C22.7734 21.93 21.4569 22.07 20.1412 22.0703C20.1393 22.0703 20.1377 22.07 20.1359 22.07C20.134 22.07 20.1324 22.0703 20.13 22.0703C18.8135 22.07 17.4977 21.9297 16.2189 21.6506C16.0365 21.6105 15.8558 21.5672 15.6756 21.5208C14.5583 21.2309 13.0484 20.6543 12.1998 19.5573C11.6998 18.912 11.4142 18.0501 11.3514 16.9968C11.329 16.6213 11.334 16.2467 11.362 15.8727H28.9085C28.9372 16.2467 28.9421 16.6216 28.9197 16.9965L28.9196 16.9966Z" fill="#967E76"/>
</svg>
