<svg id="icon" width="40" height="40" viewBox="0 0 40 40" fill="none" xmlns="http://www.w3.org/2000/svg">
<path d="M27.9991 18.2388C28.6812 17.7174 29.0816 16.908 29.0825 16.0496V15.6547H27.5835L29.7745 13.1505L29.1799 12.6306L26.5339 15.6547H21.9748V16.0496C21.9754 16.9081 22.3761 17.7175 23.0583 18.2389C22.5208 18.5112 22.1368 19.0134 22.0145 19.6034H19.6056V7.75708H8.54899V19.6034H7.75928V30.6599H9.42534L9.81998 32.2394H13.5961L13.9907 30.6599H26.0102L26.4048 32.2394H30.1807L30.5753 30.6599H32.2414V19.6034H29.0425C28.9204 19.0134 28.5363 18.5112 27.999 18.2389L27.9991 18.2388ZM28.2528 16.4444H28.2531C28.1613 16.89 27.9189 17.2904 27.5664 17.5781C27.214 17.8659 26.7734 18.0232 26.3182 18.0239H24.7387C24.2838 18.0232 23.843 17.8659 23.4905 17.5781C23.1383 17.2904 22.8956 16.89 22.8041 16.4444H28.2528ZM23.9491 18.8136H27.108C27.3522 18.8143 27.5901 18.8906 27.7892 19.0322C27.9884 19.1735 28.1388 19.373 28.2201 19.6034H22.8373C22.9185 19.373 23.0687 19.1735 23.2678 19.0322C23.4669 18.8906 23.7049 18.8143 23.9491 18.8136H23.9491ZM12.4976 18.0239H10.9182V13.2855H12.4976V18.0239ZM13.2874 14.865H14.8668L14.8671 18.0239H13.2876L13.2874 14.865ZM13.2874 14.0753L13.2876 12.4958H10.1284V18.0239H9.33872V10.1262H18.8159V18.0239H15.657V14.0752L13.2874 14.0753ZM18.8157 8.54695V9.33666H9.33856V8.54695H18.8157ZM9.33856 18.8138H18.8157V19.6035H9.33856V18.8138ZM12.9787 31.4498H10.437L10.2392 30.6601H13.1765L12.9787 31.4498ZM29.5633 31.4498H27.0216L26.8238 30.6601H29.7611L29.5633 31.4498ZM8.54901 29.8703V21.9726H31.4513V29.8698L8.54901 29.8703ZM31.4513 21.1835L8.54901 21.1832V20.3935H31.4513V21.1835ZM25.9232 10.5217H26.7129V11.3894C26.7134 11.9316 26.5529 12.4615 26.2517 12.9124C26.0372 13.2336 25.9229 13.6112 25.9232 13.9976V14.8653H25.1335V13.9976C25.1332 13.4554 25.2937 12.9253 25.5948 12.4744C25.8091 12.1532 25.9236 11.7756 25.9232 11.3894V10.5217ZM23.554 9.73203L24.3437 9.73181V10.5995C24.3442 11.1417 24.1837 11.6718 23.8825 12.1227C23.668 12.4439 23.5537 12.8215 23.554 13.2079V14.0756H22.7643V13.2079C22.7638 12.6657 22.9243 12.1356 23.2254 11.6847C23.4399 11.3635 23.5544 10.9859 23.554 10.5995V9.73203ZM9.33856 29.0806H30.6614L30.6616 22.7623H9.33821L9.33856 29.0806ZM29.8717 28.2909L20.3951 28.2907V23.5523H29.8723L29.8717 28.2909ZM10.1283 23.5523H19.6054V28.2907H10.1283V23.5523ZM21.1848 26.7112V25.1317H21.9746V26.7112H21.1848ZM18.8156 25.1317V26.7112H18.0259V25.1317H18.8156Z" fill="#967E76"/>
</svg>
