<svg width="40" height="40" viewBox="0 0 40 40" fill="none" xmlns="http://www.w3.org/2000/svg">
<path d="M22.9846 6.55319C22.786 6.38332 22.5458 6.31502 22.2927 6.35297C21.594 6.46078 20.9885 7.38154 20.8744 7.56502L15.6584 20.2633C15.3501 19.8856 15.0286 19.689 14.6972 19.6838C14.6923 19.6834 14.6876 19.6834 14.6827 19.6834C13.9157 19.6834 13.5258 20.6586 13.397 20.9805C12.5689 23.0512 7.12613 33.0507 7.07127 33.1513L6.78467 33.6772H33.2161L30.6578 27.7161C29.021 22.8781 23.6567 7.12921 22.9847 6.55321L22.9846 6.55319ZM21.4931 7.91679C21.7049 7.58509 22.1268 7.09827 22.4009 7.0561C22.4422 7.05008 22.4757 7.05387 22.4982 7.06994C22.8719 7.54985 24.9355 13.2974 27.0704 19.4448C26.584 18.5883 26.0699 18.3151 25.661 18.2653L24.4286 15.072C24.3757 14.8794 24.0028 13.685 22.9523 13.685C21.855 13.685 21.401 15.0133 21.3737 15.101L19.2543 24.153C18.578 23.9503 17.0617 23.3651 16.5983 22.0907C16.4454 21.6698 16.2876 21.3077 16.1262 20.9967L21.4931 7.91679ZM14.0571 21.2454C14.3078 20.6186 14.5446 20.3951 14.6837 20.3951H14.6859C14.8694 20.3983 15.3517 20.7911 15.8915 22.2308C15.6065 23.2659 13.0926 31.8583 8.20864 32.5474C9.60036 29.9764 13.3571 22.9948 14.0566 21.2451L14.0571 21.2454ZM16.3701 23.1326C16.689 23.5585 17.0937 23.8924 17.5071 24.1498C17.2491 25.3748 15.7602 31.087 10.2437 32.5978C13.762 30.652 15.7242 25.2321 16.37 23.1327L16.3701 23.1326ZM18.156 24.4998C18.523 24.6683 18.8547 24.7799 19.0915 24.8483L18.7942 26.1177C18.739 26.3527 17.5703 31.0393 12.3993 32.5205C16.4672 30.3957 17.8152 25.9554 18.1565 24.4994L18.156 24.4998ZM19.4868 26.2797L22.0571 15.2951C22.06 15.2862 22.3774 14.396 22.9526 14.396C23.5156 14.396 23.7437 15.2608 23.7455 15.2682L24.9533 18.4075C24.3998 18.7008 23.9314 19.4215 23.6069 20.5102L22.2185 24.9865C22.1417 25.2611 20.5341 30.7385 14.4482 32.4556C18.4784 30.369 19.4744 26.3345 19.4869 26.2796L19.4868 26.2797ZM15.1656 32.9666C21.2296 30.9353 22.8839 25.2483 22.9005 25.1871L24.2875 20.717C24.6629 19.457 25.1596 18.9873 25.4989 18.9672C25.8897 18.9545 26.3312 19.4391 26.6957 20.2889L32.1364 32.9666L15.1656 32.9666Z" fill="#967E76"/>
</svg>
