<svg id="icon" width="40" height="40" viewBox="0 0 40 40" fill="none" xmlns="http://www.w3.org/2000/svg">
<path d="M34.7999 17.8912C34.7999 16.8529 34.1633 15.932 33.2183 15.5521C33.2191 15.5264 33.2193 15.4997 33.2193 15.4737C33.2193 13.7678 31.8316 12.3801 30.1257 12.3801C29.9205 12.3801 29.7175 12.4003 29.5175 12.4409C29.4276 11.1306 28.3327 10.0917 26.9999 10.0917C25.9614 10.0917 25.04 10.7283 24.6609 11.6733C24.6346 11.6726 24.6084 11.6723 24.5819 11.6723C22.8761 11.6723 21.4888 13.06 21.4888 14.7659C21.4888 14.9712 21.5091 15.1741 21.5499 15.3742C20.2388 15.4635 19.2 16.5585 19.2 17.8914C19.2 18.9297 19.8368 19.8514 20.7821 20.2307C20.7813 20.257 20.781 20.2832 20.781 20.3092C20.781 22.015 22.1685 23.4028 23.8741 23.4028C24.0794 23.4028 24.2826 23.3825 24.4826 23.3417C24.5637 24.5276 25.4687 25.4883 26.6273 25.661L26.6276 34.0548H12.1028V26.0827C12.7932 26.6541 13.666 26.9812 14.5754 26.9812C16.718 26.9812 18.4607 25.2385 18.4607 23.096C18.4607 22.1273 18.0943 21.1945 17.4442 20.4815C18.0943 19.7685 18.4607 18.8354 18.4607 17.8667C18.4607 16.8981 18.0943 15.9653 17.4442 15.2523C18.0943 14.5393 18.4607 13.6065 18.4607 12.6378C18.4607 10.8811 17.2823 9.35664 15.6157 8.89567V8.88502C15.6157 6.74269 13.873 5 11.7304 5C9.58784 5 7.84515 6.74269 7.84515 8.88529V8.89594C6.17829 9.35688 5 10.8814 5 12.6381C5 13.6067 5.36636 14.5395 6.01645 15.2525C5.36635 15.9655 5 16.8981 5 17.8667C5 18.8352 5.36636 19.7685 6.01645 20.4815C5.36635 21.1948 5 22.1278 5 23.096C5 25.2385 6.74269 26.9812 8.88528 26.9812C9.79471 26.9812 10.6675 26.6538 11.3579 26.0827V34.0548H5.37263C5.16684 34.0548 5.00003 34.2214 5.00003 34.4274C5.00003 34.6332 5.16658 34.8 5.37263 34.8H34.4275C34.6333 34.8 34.8001 34.6335 34.8001 34.4274C34.8001 34.2217 34.6335 34.0548 34.4275 34.0548H27.3726V25.663C28.2542 25.5313 29.006 24.9399 29.3395 24.1097C29.3653 24.1105 29.392 24.1107 29.418 24.1107C31.1238 24.1107 32.5116 22.723 32.5116 21.0171C32.5116 20.8124 32.4913 20.6089 32.4505 20.4089C33.7611 20.3192 34.7999 19.2242 34.7999 17.8913L34.7999 17.8912ZM5.74504 23.0959C5.74504 22.208 6.12726 21.3561 6.79349 20.7589C6.87248 20.688 6.91743 20.5872 6.91743 20.4814C6.91743 20.3757 6.87222 20.2749 6.79349 20.2039C6.12752 19.6071 5.74504 18.7551 5.74504 17.8667C5.74504 16.9784 6.12726 16.1263 6.79349 15.5297C6.87248 15.4591 6.91743 15.358 6.91743 15.2522C6.91743 15.1465 6.87222 15.0451 6.79349 14.9747C6.12752 14.3781 5.74504 13.5264 5.74504 12.638C5.74504 11.1294 6.82023 9.8326 8.30158 9.55409C8.48918 9.51875 8.61988 9.34752 8.60377 9.15733C8.59649 9.06742 8.58999 8.97726 8.58999 8.88554C8.59025 7.15376 9.9991 5.74492 11.7306 5.74492C13.4621 5.74492 14.871 7.15376 14.871 8.88528C14.871 8.977 14.8645 9.06716 14.8572 9.15706C14.8411 9.34726 14.9718 9.51875 15.1594 9.55382C16.6407 9.83237 17.7159 11.1292 17.7159 12.6378C17.7159 13.5261 17.3337 14.3781 16.6675 14.9747C16.5885 15.0454 16.5435 15.1465 16.5435 15.2522C16.5435 15.358 16.5887 15.4593 16.6675 15.5297C17.3334 16.1263 17.7159 16.9783 17.7159 17.8667C17.7159 18.7553 17.3337 19.6073 16.6675 20.2039C16.5885 20.2746 16.5435 20.3757 16.5435 20.4814C16.5435 20.5872 16.5887 20.6885 16.6675 20.7589C17.3334 21.3555 17.7159 22.2075 17.7159 23.0959C17.7159 24.8274 16.3071 26.2362 14.5756 26.2362C13.7062 26.2362 12.876 25.8681 12.2854 25.2374L14.3173 23.2058C14.4628 23.0603 14.4628 22.8246 14.3173 22.6791C14.1718 22.5336 13.9361 22.5336 13.7906 22.6791L12.103 24.3667V20.2834L14.3173 18.0691C14.4628 17.9236 14.4628 17.6879 14.3173 17.5424C14.1718 17.3969 13.9361 17.3969 13.7906 17.5424L12.103 19.23V15.147L14.3173 12.9327C14.4628 12.7872 14.4628 12.5515 14.3173 12.406C14.1718 12.2605 13.9361 12.2605 13.7906 12.406L12.103 14.0936V9.99967C12.103 9.79387 11.9364 9.62706 11.7304 9.62706C11.5246 9.62706 11.3578 9.79361 11.3578 9.99967V14.0936L9.67016 12.406C9.52465 12.2605 9.28898 12.2605 9.14347 12.406C8.99796 12.5515 8.99796 12.7872 9.14347 12.9327L11.3578 15.147V19.23L9.67016 17.5424C9.52465 17.3969 9.28898 17.3969 9.14347 17.5424C8.99796 17.6879 8.99796 17.9236 9.14347 18.0691L11.3578 20.2834V24.3667L9.67016 22.6791C9.52465 22.5336 9.28898 22.5336 9.14347 22.6791C8.99796 22.8246 8.99796 23.0603 9.14347 23.2058L11.1754 25.2377C10.5848 25.8683 9.7549 26.2365 8.88518 26.2365C7.15393 26.2365 5.74509 24.8274 5.74509 23.0959H5.74504ZM32.2762 19.6697C32.1936 19.6697 32.1068 19.6622 32.0018 19.6461C31.8711 19.6258 31.737 19.6778 31.6536 19.7822C31.5702 19.8867 31.5497 20.0278 31.5988 20.1517C31.7098 20.431 31.7661 20.7226 31.7661 21.0172C31.7661 22.3123 30.7128 23.3656 29.4177 23.3656C29.3185 23.3656 29.2211 23.3573 29.1249 23.3448C28.9415 23.3238 28.765 23.4386 28.7178 23.6197C28.545 24.2771 28.0157 24.763 27.3721 24.9017L27.3724 19.34L29.3421 17.3705C29.4877 17.225 29.4877 16.9893 29.3421 16.8438C29.1966 16.6983 28.961 16.6983 28.8155 16.8438L27.3724 18.2866V16.3478C27.3724 16.142 27.2058 15.9752 26.9998 15.9752C26.794 15.9752 26.6272 16.1417 26.6272 16.3478V20.3885L25.1497 18.9108C25.0042 18.7653 24.7686 18.7653 24.6231 18.9108C24.4775 19.0563 24.4775 19.2919 24.6231 19.4375L26.6274 21.4418V24.9054C25.8256 24.7334 25.2217 24.0204 25.2217 23.1682C25.2217 23.0853 25.2292 22.9982 25.2454 22.8943C25.2656 22.7623 25.2142 22.629 25.1097 22.5459C25.0424 22.4923 24.9603 22.4648 24.8772 22.4648C24.8309 22.4648 24.7841 22.4736 24.7397 22.491C24.4607 22.602 24.1696 22.6581 23.8739 22.6581C22.5792 22.6581 21.5258 21.6047 21.5258 20.3097C21.5258 20.2099 21.5341 20.1122 21.5461 20.0158C21.5689 19.8306 21.4515 19.6573 21.2712 19.61C20.4901 19.4047 19.9449 18.6985 19.9449 17.8919C19.9449 16.9116 20.7426 16.1139 21.7235 16.1139C21.8053 16.1139 21.8947 16.1215 21.9973 16.1376C22.1312 16.1578 22.2626 16.1064 22.3458 16.0019C22.4292 15.8972 22.4497 15.7564 22.4006 15.6319C22.2897 15.3529 22.2335 15.0619 22.2335 14.7664C22.2335 13.4714 23.2869 12.418 24.5817 12.418C24.6814 12.418 24.7791 12.4263 24.8761 12.4383C25.0624 12.4648 25.2346 12.3437 25.2824 12.1634C25.4869 11.3829 26.1934 10.8374 26.9997 10.8374C27.9803 10.8374 28.7782 11.6351 28.7782 12.6154C28.7782 12.6975 28.7707 12.7872 28.7546 12.8883C28.7335 13.0203 28.7852 13.1538 28.8894 13.2372C28.9939 13.3206 29.1352 13.3417 29.2597 13.2928C29.5387 13.1819 29.8297 13.1258 30.1255 13.1258C31.4205 13.1258 32.4739 14.1791 32.4739 15.4741C32.4739 15.5739 32.465 15.6716 32.4531 15.768C32.4302 15.9533 32.5477 16.1266 32.728 16.1739C33.5093 16.3786 34.0547 17.0851 34.0547 17.8911C34.0547 18.872 33.257 19.6696 32.2761 19.6696L32.2762 19.6697Z" fill="#967E76"/>
</svg>
