<svg id="icon" width="40" height="40" viewBox="0 0 40 40" fill="none" xmlns="http://www.w3.org/2000/svg">
<path fill-rule="evenodd" clip-rule="evenodd" d="M13.3706 11.5702V9.65751C13.3706 8.74207 14.105 8 15.0111 8H23.3473C24.2534 8 24.9879 8.74207 24.9879 9.65751V11.5702H29.5083C30.5149 11.5702 31.331 12.3947 31.331 13.4118V28.1443C31.331 29.1614 30.5149 29.9858 29.5083 29.9858H8.82293C7.81609 29.9858 7 29.1614 7 28.1443V13.4118C7 12.3947 7.81609 11.5702 8.82293 11.5702H13.3706ZM14.4643 9.65751C14.4643 9.35243 14.7091 9.10499 15.0111 9.10499H23.3473C23.6494 9.10499 23.8943 9.35241 23.8943 9.65751V11.5702H14.464L14.4643 9.65751ZM8.82345 12.6752H11.0376V28.8807H8.82345C8.42063 28.8807 8.09426 28.5509 8.09426 28.1442V13.4117C8.09426 13.005 8.42061 12.6752 8.82345 12.6752ZM12.1313 28.8807V12.6752H26.2278V28.8807H12.1313ZM27.3213 28.8807H29.5086C29.9112 28.8807 30.2378 28.5509 30.2378 28.1442V13.4117C30.2378 13.005 29.9113 12.6752 29.5086 12.6752H27.3213V28.8807Z" fill="#967E76"/>
</svg>
