<svg width="40" height="40" viewBox="0 0 40 40" fill="none" xmlns="http://www.w3.org/2000/svg">
<path d="M8.90858 31.0636C12.3865 32.6662 16.1703 33.4964 19.9994 33.4964C23.8287 33.4964 27.6126 32.6662 31.0903 31.0636C31.716 30.7716 32.1916 30.2318 32.4028 29.5745C32.6178 28.9053 32.5441 28.1769 32.1997 27.5646L31.2653 25.9117L31.2644 25.9093L31.2628 25.9075L20.4343 6.75034C20.3385 6.60324 20.1749 6.5144 19.9992 6.5144C19.8235 6.5144 19.6599 6.60324 19.5642 6.75034L8.7356 25.9075L8.73404 25.9093L8.73314 25.9117L7.79874 27.5646C7.45433 28.1769 7.38066 28.9053 7.59562 29.5745C7.80678 30.2316 8.28225 30.7713 8.90767 31.0636H8.90858ZM20 8.0127L30.1406 25.9538C27.0212 27.6228 23.5377 28.496 20 28.496C16.4623 28.496 12.9789 27.6228 9.85944 25.9538L20 8.0127ZM8.67087 28.0567L9.36773 26.8239H9.3675C12.6369 28.5781 16.2898 29.4962 20.0001 29.4962C23.7104 29.4962 27.3629 28.5782 30.6327 26.8239L31.3295 28.0567H31.3293C31.5369 28.4257 31.5813 28.8645 31.4518 29.2676C31.3288 29.6607 31.0449 29.9832 30.6706 30.1553C27.3248 31.6975 23.6843 32.4962 20.0003 32.4962C16.3159 32.4962 12.6757 31.6975 9.32942 30.1553C8.95554 29.983 8.67182 29.6605 8.54885 29.2676C8.41939 28.8645 8.46381 28.4257 8.6714 28.0567H8.67087ZM15.5 26.4962C16.0304 26.4962 16.5391 26.2855 16.9143 25.9102C17.2893 25.5352 17.5 25.0265 17.5 24.4962C17.5 23.9656 17.2893 23.4569 16.9143 23.0819C16.5391 22.7069 16.0304 22.4962 15.5 22.4962C14.9697 22.4962 14.4609 22.7069 14.0857 23.0819C13.7107 23.4569 13.5 23.9656 13.5 24.4962C13.5007 25.0263 13.7116 25.5348 14.0864 25.9096C14.4614 26.2846 14.9697 26.4955 15.5 26.4962ZM15.5 23.4962C15.7652 23.4962 16.0197 23.6015 16.2072 23.789C16.3947 23.9765 16.5 24.231 16.5 24.4962C16.5 24.7614 16.3947 25.0156 16.2072 25.2033C16.0197 25.3908 15.7652 25.4962 15.5 25.4962C15.2348 25.4962 14.9804 25.3908 14.7929 25.2033C14.6054 25.0156 14.5 24.7614 14.5 24.4962C14.5002 24.231 14.6058 23.9768 14.7931 23.7893C14.9806 23.6018 15.2348 23.4964 15.5 23.4962L15.5 23.4962ZM20.5 20.4962C20.5 21.0265 20.7107 21.5353 21.0857 21.9102C21.461 22.2855 21.9697 22.4962 22.5 22.4962C23.0304 22.4962 23.5391 22.2855 23.9143 21.9102C24.2893 21.5352 24.5 21.0265 24.5 20.4962C24.5 19.9656 24.2893 19.4569 23.9143 19.0819C23.5391 18.7069 23.0304 18.4962 22.5 18.4962C21.9697 18.4966 21.4614 18.7076 21.0864 19.0826C20.7116 19.4576 20.5007 19.9658 20.5 20.4962ZM23.5 20.4962C23.5 20.7614 23.3947 21.0156 23.2072 21.2033C23.0197 21.3908 22.7652 21.4962 22.5 21.4962C22.2348 21.4962 21.9804 21.3908 21.7929 21.2033C21.6054 21.0156 21.5 20.7614 21.5 20.4962C21.5 20.231 21.6054 19.9765 21.7929 19.789C21.9804 19.6015 22.2348 19.4962 22.5 19.4962C22.7652 19.4964 23.0194 19.6018 23.2069 19.7893C23.3942 19.9768 23.4998 20.231 23.5 20.4962L23.5 20.4962ZM24.4741 26.1545V26.1542C24.3866 26.4161 24.1038 26.5576 23.8418 26.4708L20.8418 25.4708C20.5797 25.3835 20.438 25.1 20.5255 24.838C20.6128 24.5759 20.896 24.4342 21.1583 24.5214L24.1583 25.5214C24.4199 25.6094 24.5612 25.8924 24.4741 26.1542L24.4741 26.1545ZM15.6467 20.3499V20.3497C15.5529 20.2559 15.5003 20.1289 15.5003 19.9963C15.5003 19.8637 15.5529 19.7365 15.6467 19.6428L17.6467 17.6428C17.7402 17.5474 17.8679 17.4934 18.0014 17.4928C18.1349 17.4921 18.263 17.5448 18.3574 17.6392C18.4516 17.7336 18.5045 17.8617 18.5038 17.9952C18.5032 18.1287 18.4492 18.2564 18.3538 18.3497L16.3538 20.3497C16.2601 20.4436 16.1329 20.4963 16.0003 20.4963C15.8677 20.4963 15.7404 20.4436 15.6467 20.3497V20.3499ZM19.6467 14.3499V14.3497C19.5514 14.2564 19.4974 14.1287 19.4967 13.9952C19.496 13.8617 19.5487 13.7336 19.6431 13.6392C19.7375 13.5448 19.8657 13.4921 19.9992 13.4928C20.1326 13.4934 20.2603 13.5474 20.3538 13.6428L22.3538 15.6428C22.4492 15.7363 22.5032 15.8637 22.5038 15.9972C22.5045 16.1307 22.4516 16.259 22.3574 16.3532C22.263 16.4477 22.1349 16.5003 22.0014 16.4997C21.8679 16.499 21.7402 16.445 21.6467 16.3497L19.6467 14.3499Z" fill="#967E76"/>
</svg>
