<svg width="60" height="60" viewBox="0 0 60 60" fill="none" xmlns="http://www.w3.org/2000/svg">
<path d="M58.8 29.6007H57.6V11.6007C57.6 8.24068 54.96 5.60068 51.6 5.60068C48.24 5.60068 45.6 8.24068 45.6 11.6007C44.88 11.6007 44.4 12.0807 44.4 12.8007C44.4 13.5207 44.88 14.0007 45.6 14.0007H48C48.72 14.0007 49.2 13.5207 49.2 12.8007C49.2 12.0807 48.72 11.6007 48 11.6007C48 9.56068 49.56 8.00068 51.6 8.00068C53.64 8.00068 55.2 9.56068 55.2 11.6007V29.6007H48V27.2007C48 26.4807 47.52 26.0007 46.8 26.0007H32.4C31.68 26.0007 31.2 26.4807 31.2 27.2007V29.6007H1.2C0.48 29.6007 0 30.0807 0 30.8007C0 31.5207 0.48 32.0007 1.2 32.0007H2.4C2.64 40.0407 5.76 50.3614 10.8 54.6814C11.76 55.5214 13.08 56.0014 14.4 56.0014V57.2014C14.4 57.9214 14.88 58.4014 15.6 58.4014C16.32 58.4014 16.8 57.9214 16.8 57.2014V56.0014H43.2V57.2014C43.2 57.9214 43.68 58.4014 44.4 58.4014C45.12 58.4014 45.6 57.9214 45.6 57.2014V56.0014C46.92 56.0014 48.24 55.5214 49.2 54.6814C54.24 50.4814 57.24 40.1607 57.6 32.0007H58.8C59.52 32.0007 60 31.5207 60 30.8007C60 30.0807 59.52 29.6007 58.8 29.6007ZM33.6 28.4007H45.6V39.2007H33.6V28.4007ZM33.6 41.6007H45.6V44.0007H33.6V41.6007ZM47.6407 52.7607C47.0407 53.2407 46.2007 53.6007 45.3607 53.6007H14.6407C13.8007 53.6007 12.9607 53.3607 12.3607 52.7607C7.92069 49.0407 5.16069 39.3207 4.80069 32H31.2007V45.2C31.2007 45.92 31.6807 46.4 32.4007 46.4H46.8007C47.5207 46.4 48.0007 45.92 48.0007 45.2V32H55.2007C54.8407 39.44 52.0807 49.04 47.6407 52.7607ZM12 17.6C14.04 17.6 15.6 16.04 15.6 14C15.6 11.96 14.04 10.4 12 10.4C9.96 10.4 8.4 11.96 8.4 14C8.4 16.04 9.96 17.6 12 17.6ZM12 12.8C12.72 12.8 13.2 13.28 13.2 14C13.2 14.72 12.72 15.2 12 15.2C11.28 15.2 10.8 14.72 10.8 14C10.8 13.28 11.28 12.8 12 12.8ZM25.2 11.6C27.84 11.6 30 9.44 30 6.8C30 4.16 27.84 2 25.2 2C22.56 2 20.4 4.16 20.4 6.8C20.4 9.44 22.56 11.6 25.2 11.6ZM25.2 4.4C26.52 4.4 27.6 5.48 27.6 6.8C27.6 8.12 26.52 9.2 25.2 9.2C23.88 9.2 22.8 8.12 22.8 6.8C22.8 5.48 23.88 4.4 25.2 4.4ZM19.2 27.2C21.24 27.2 22.8 25.64 22.8 23.6C22.8 21.56 21.24 20 19.2 20C17.16 20 15.6 21.56 15.6 23.6C15.6 25.64 17.16 27.2 19.2 27.2ZM19.2 22.4C19.92 22.4 20.4 22.88 20.4 23.6C20.4 24.32 19.92 24.8 19.2 24.8C18.48 24.8 18 24.32 18 23.6C18 22.88 18.48 22.4 19.2 22.4Z" fill="#967E76"/>
</svg>
